<svg width="46" height="42" fill="none" xmlns="http://www.w3.org/2000/svg"><path d="M42.472.608H3.528C1.784.608.38 2.206.38 4.144v26.544c0 1.937 1.404 3.535 3.148 3.535h14.338l-.485 5.522h-3.245a.868.868 0 00-.872.872c0 .485.388.872.872.872h17.777a.868.868 0 00.871-.872.868.868 0 00-.871-.872h-3.246l-.484-5.522H42.52c1.744 0 3.149-1.598 3.149-3.535V4.095c0-1.937-1.453-3.487-3.197-3.487zM3.528 2.303h38.944c.823 0 1.453.824 1.453 1.84v.05H2.075v-.05c0-1.065.63-1.84 1.453-1.84zM2.075 5.887h41.898v21.604H2.075V5.887zm24.848 33.81h-7.846l.484-5.522h6.878l.484 5.522zm15.549-7.217H3.528c-.823 0-1.453-.824-1.453-1.841v-1.55h41.898v1.599c0 .968-.678 1.792-1.501 1.792z" fill="#fff"/><path d="M33.995 16.834l-5.667-2.809c-.436-.194-.92-.048-1.114.387-.194.436-.048.92.388 1.115l4.117 2.082-4.166 2.035c-.436.194-.581.726-.387 1.114.145.29.436.484.775.484.145 0 .242-.048.387-.097l5.667-2.81a.863.863 0 00.485-.774c0-.34-.194-.581-.485-.727zm-15.161-2.422c-.193-.435-.726-.58-1.114-.387l-5.667 2.81a.863.863 0 000 1.55l5.619 2.809c.145.048.242.097.387.097a.92.92 0 00.775-.485c.194-.436.049-.92-.387-1.114L14.28 17.61l4.166-2.034a.883.883 0 00.387-1.162zm6.588-2.422a.834.834 0 00-1.114.437l-4.214 9.978c-.194.436 0 .92.436 1.114.097.048.242.048.339.048.339 0 .63-.194.775-.533l4.262-9.93c.146-.435-.048-.968-.484-1.113z" fill="#fff"/></svg>